<svg xmlns="http://www.w3.org/2000/svg" width="279.058" height="369.114"><path d="M187.443 52.318c18.064 27.435 28.11 72.331 29.86 80.831 12.25-13.75 6.847-16.61 6.847-16.61-17.242-58.57-15.969-33.423-27.136-75.59z"/><path transform="matrix(.80294 0 0 .80774 -23.44 -230.232)" d="M334.125 441.737c0 10.01-9.234 18.125-20.625 18.125-11.39 0-20.625-8.115-20.625-18.125s9.234-18.125 20.625-18.125c11.39 0 20.625 8.115 20.625 18.125z" fill="#fff5c9" stroke="#0a0000"/><path d="M60.604 69.547c-6.6 53.738-9.487 44.017-10.43 56.038 0 0-1.237-5.303 10.96 10.43-3.182-35.179-2.474-59.044 4.773-61.695l12.375-10.253-13.789-7.425-13.081 13.435z" stroke="#000"/><path d="M334.125 441.737c0 10.01-9.234 18.125-20.625 18.125-11.39 0-20.625-8.115-20.625-18.125s9.234-18.125 20.625-18.125c11.39 0 20.625 8.115 20.625 18.125z" transform="matrix(.85671 0 0 .91526 -223.976 -274.117)" fill="#fff5c9" stroke="#0a0000"/><path d="M57.825 118.623s-16.861 99.17 35.855 130.094c52.715 30.924 69.425 5.821 69.425 5.821s57.537-25.056 54.868-123.662c-.856-31.63-12.712-66.846-29.057-79.563-34.609-26.926-87.718-5.623-87.718-5.623L63.83 53.275z" fill="#fff5c9" stroke="#000" stroke-width=".874"/><path d="M.5 368.614s12.385-70.932 133.972-70.771c129.858.17 144.086 67.528 144.086 67.528" fill="#fff" stroke="#000"/><path d="M118.603 260.44s-4.964 29.507-9.914 39.76c0 0 27.337 5.45 54.56.146-5.656-12.374-11.396-39.907-11.396-39.907z" fill="#fff5c9" stroke="#000"/><path d="M135.425 177.796c39.285 1.2 52.635 37.096 52.914 42.232 1.081 19.893.86 35.673-16.601 44.303-16.656 8.231-48.554 11.029-64.783 4.543-7.165-2.864-29.4-8.376-28.384-41.596 2.827-39.794 38.075-49.747 56.854-49.482z"/><path d="M91.186 227.574c0-2.205-6.44-30.056 48.614-26.45 55.053 3.607 34.82 33.843 33.083 36.669-1.433 2.328-24.623 18.388-31.947-9.017-6.107 2.251-12.879.2-12.879.2s-1.957 7.514-7.166 11.396c-5.208 3.883-29.073 9.643-29.705-12.798z" fill="#fff5c9"/><path d="M101.603 214.363c8.77 12.776 47.4 17.454 62-.424" fill="none" stroke="#000" stroke-width="1.4"/><path d="M97.557 218.732s5-2.875 5.625-10.25M169.228 218.064s-6.125-1.625-6.75-9" fill="none" stroke="#000"/><path d="M56.012 129.94l161.3.124" fill="none" stroke="#000" stroke-width="2.011"/><path d="M125.978 129.877c0 10.01-9.234 18.125-20.625 18.125-11.39 0-20.625-8.115-20.625-18.125s9.234-18.125 20.625-18.125 20.625 8.115 20.625 18.125z" fill="#fff" stroke="#0a0000"/><path d="M137.978 140.814s-13.94-5.763-31.082 8.199c-7.003 5.703-12.478 18.03-6.293 28.926 19.024 33.514 61-8.375 61-8.375" fill="#fff5c9" stroke="#0a0000"/><path d="M183.478 129.877c0 10.01-9.234 18.125-20.625 18.125-11.39 0-20.625-8.115-20.625-18.125s9.234-18.125 20.625-18.125 20.625 8.115 20.625 18.125z" fill="#fff" stroke="#0a0000"/><path d="M52.353 60.69c-24.218 4.154-37.5 16-37.5 16s7.44-31.536 42-36.75l-21.5-1.75s23.456-19.556 57.75-21.5c-3.182-3.36-24.75-3.75-24.75-3.75s45.405-22.787 74.75-1.75C145.225 5.355 137.487 0 137.487 0s38.742.36 51.116 20.69c0 0 29.544-21.633 55 4 0 0-25.8-2.645-30.75 4.25 0 0 16.738 9.881 15.5 44 0 0-8.585-12.177-18.75-20.75 9.546 19.71 1.25 37.75 1.25 37.75-7.513-30.141-37.5-40-37.5-40 0 17.942-10.75 33.25-10.75 33.25-8.308-13.612-21.75-23.25-21.75-23.25 0 26.427-26.5 32.25-26.5 32.25 1.945-18.474-6.875-24.813-6.875-24.813C79.371 79.22 65.853 95.064 65.853 95.064s-4.23-7.021-2.375-22.312c-12.993 2.033-25.625 15.687-25.625 15.687s.535-16.79 14.5-27.75z"/><path d="M105.119 297.52l18.208-2.122 11.314 70.18" fill="#fff" stroke="#000"/><path d="M114.103 283.127s-8.75-.188-16.5 3.312 25.573 8.841 25.573 8.841l-6.27 18.642s-29.16-7.975-29.66-11.475 9.225-15.14 9.225-15.14M166.75 297.52l-18.208-2.122-11.314 70.18" fill="#fff" stroke="#000"/><path d="M157.765 283.127s8.75-.188 16.5 3.312-25.573 8.841-25.573 8.841l6.27 18.642s29.16-7.975 29.66-11.475-9.224-15.14-9.224-15.14" fill="#fff" stroke="#000"/><path d="M81.162 121.836c-4.927-1.512-8.315-11.952-8.315-11.952 8.605-1.875 39.475-21.96 39.475-21.96s11.335 2.473 12.363 10.158c-24.373 4.977-43.523 23.754-43.523 23.754zM192.375 112.552c3.814-3.466 2.435-14.355 2.435-14.355-8.585 1.967-45.068-3.063-45.068-3.063s-9.204 7.063-6.862 14.455c24.173-5.874 49.495 2.963 49.495 2.963z" stroke="#000"/><path d="M168.052 130.122a5.106 5.106 0 1 1-10.21 0 5.106 5.106 0 0 1 10.21 0zM110.802 130.122a5.106 5.106 0 1 1-10.21 0 5.106 5.106 0 0 1 10.21 0z" opacity=".99" stroke="#000" stroke-width="1.10026"/></svg>