<svg xmlns="http://www.w3.org/2000/svg" width="297.662" height="393.721" viewBox="0 0 279.05844 369.11386"><g transform="translate(-203.147 -314.423)"><path d="M390.59 366.74c18.064 27.436 28.11 72.332 29.86 80.832 12.25-13.75 6.847-16.611 6.847-16.611-17.243-58.569-15.97-33.422-27.136-75.588z"/><ellipse transform="matrix(.80294 0 0 .80774 179.707 84.19)" cx="313.5" cy="441.737" rx="20.625" ry="18.125" fill="#fff5c9" stroke="#0a0000"/><path d="M263.75 383.97c-6.599 53.737-9.486 44.017-10.429 56.038 0 0-1.237-5.304 10.96 10.43-3.182-35.179-2.475-59.044 4.773-61.696l12.375-10.253-13.79-7.424-13.08 13.435z" stroke="#000"/><ellipse transform="matrix(.85671 0 0 .91526 -20.83 40.306)" cx="313.5" cy="441.737" rx="20.625" ry="18.125" fill="#fff5c9" stroke="#0a0000"/><path d="M260.971 433.046s-16.86 99.17 35.855 130.094c52.716 30.924 69.426 5.821 69.426 5.821s57.537-25.056 54.868-123.662c-.856-31.63-12.712-66.846-29.057-79.563-34.61-26.926-87.718-5.623-87.718-5.623l-37.368 7.585z" fill="#fff5c9" stroke="#000" stroke-width=".874"/><path d="M203.647 683.037s12.385-70.932 133.971-70.772c129.858.172 144.087 67.53 144.087 67.53" fill="#fff" stroke="#000"/><path d="M321.75 574.862s-4.964 29.508-9.914 39.76c0 0 27.337 5.45 54.56.147C360.74 602.395 355 574.862 355 574.862z" fill="#fff5c9" stroke="#000"/><path d="M338.571 492.22c39.286 1.2 52.636 37.095 52.915 42.23 1.081 19.894.86 35.674-16.602 44.303-16.655 8.232-48.554 11.03-64.782 4.543-7.165-2.863-29.4-8.375-28.384-41.595 2.827-39.794 38.074-49.747 56.853-49.482z"/><path d="M294.333 541.996c0-2.204-6.44-30.055 48.614-26.449 55.053 3.607 34.82 33.842 33.082 36.668-1.432 2.33-24.622 18.389-31.946-9.016-6.107 2.251-12.88.2-12.88.2s-1.956 7.514-7.165 11.396c-5.209 3.882-29.073 9.643-29.705-12.799z" fill="#fff5c9"/><path d="M304.75 528.786c8.77 12.775 47.4 17.454 62-.424" fill="none" stroke="#000" stroke-width="1.4"/><path d="M300.703 533.155s5-2.875 5.625-10.25M372.375 532.487s-6.125-1.625-6.75-9" fill="none" stroke="#000"/><path d="M259.16 444.362l161.3.125" fill="none" stroke="#000" stroke-width="2.011"/><ellipse transform="translate(-5 2.563)" cx="313.5" cy="441.737" rx="20.625" ry="18.125" fill="#fff" stroke="#0a0000"/><path d="M341.125 455.237s-13.94-5.763-31.082 8.199c-7.003 5.703-12.478 18.03-6.293 28.926 19.024 33.514 61-8.375 61-8.375" fill="#fff5c9" stroke="#0a0000"/><ellipse transform="translate(52.5 2.563)" cx="313.5" cy="441.737" rx="20.625" ry="18.125" fill="#fff" stroke="#0a0000"/><path d="M255.5 375.112c-24.218 4.154-37.5 16-37.5 16s7.44-31.535 42-36.75l-21.5-1.75s23.455-19.555 57.75-21.5c-3.182-3.359-24.75-3.75-24.75-3.75s45.405-22.786 74.75-1.75c2.121-5.833-5.616-11.19-5.616-11.19s38.742.36 51.116 20.69c0 0 29.544-21.632 55 4 0 0-25.8-2.644-30.75 4.25 0 0 16.737 9.882 15.5 44 0 0-8.585-12.176-18.75-20.75 9.546 19.71 1.25 37.75 1.25 37.75-7.513-30.14-37.5-40-37.5-40 0 17.943-10.75 33.25-10.75 33.25C357.441 384 344 374.362 344 374.362c0 26.428-26.5 32.25-26.5 32.25 1.945-18.473-6.875-24.812-6.875-24.812C282.518 393.644 269 409.487 269 409.487s-4.231-7.021-2.375-22.312C253.632 389.208 241 402.862 241 402.862s.535-16.79 14.5-27.75z"/><path d="M308.266 611.942l18.208-2.121L337.787 680" fill="#fff" stroke="#000"/><path d="M317.25 597.55s-8.75-.188-16.5 3.312 25.573 8.841 25.573 8.841l-6.27 18.641s-29.16-7.974-29.66-11.474 9.224-15.14 9.224-15.14M369.896 611.942l-18.208-2.121L340.375 680" fill="#fff" stroke="#000"/><path d="M360.912 597.55s8.75-.188 16.5 3.312-25.573 8.841-25.573 8.841l6.27 18.641s29.16-7.974 29.66-11.474-9.224-15.14-9.224-15.14" fill="#fff" stroke="#000"/><path d="M284.309 436.259c-4.927-1.512-8.316-11.952-8.316-11.952 8.605-1.875 39.476-21.96 39.476-21.96s11.334 2.473 12.362 10.158c-24.373 4.977-43.522 23.754-43.522 23.754zM395.521 426.975c3.815-3.466 2.436-14.356 2.436-14.356-8.585 1.968-45.069-3.062-45.069-3.062s-9.203 7.063-6.861 14.455c24.172-5.875 49.494 2.963 49.494 2.963z" stroke="#000"/><circle transform="translate(161.479 197.572) scale(.55013)" cx="371.938" cy="448.935" r="9.281" opacity=".99" stroke="#000" stroke-width="2"/><circle transform="translate(104.229 197.572) scale(.55013)" cx="371.938" cy="448.935" r="9.281" opacity=".99" stroke="#000" stroke-width="2"/></g></svg>